<?xml version="1.0" encoding="UTF-8" standalone="no"?>
<!-- Created with Inkscape (http://www.inkscape.org/) -->
<svg
   xmlns:dc="http://purl.org/dc/elements/1.1/"
   xmlns:cc="http://web.resource.org/cc/"
   xmlns:rdf="http://www.w3.org/1999/02/22-rdf-syntax-ns#"
   xmlns:svg="http://www.w3.org/2000/svg"
   xmlns="http://www.w3.org/2000/svg"
   xmlns:sodipodi="http://sodipodi.sourceforge.net/DTD/sodipodi-0.dtd"
   xmlns:inkscape="http://www.inkscape.org/namespaces/inkscape"
   version="1.0"
   width="751"
   height="601"
   viewBox="0 0 750 599.99902"
   id="Layer_1"
   xml:space="preserve"
   sodipodi:version="0.32"
   inkscape:version="0.45"
   sodipodi:docname="I-297.svg"
   sodipodi:docbase="C:\Documents and Settings\ltljltlj\Desktop\Signs\Interstate Shields"
   inkscape:output_extension="org.inkscape.output.svg.inkscape"
   sodipodi:modified="true"><metadata
   id="metadata36"><rdf:RDF><cc:Work
       rdf:about=""><dc:format>image/svg+xml</dc:format><dc:type
         rdf:resource="http://purl.org/dc/dcmitype/StillImage" /></cc:Work></rdf:RDF></metadata><sodipodi:namedview
   inkscape:window-height="965"
   inkscape:window-width="1047"
   inkscape:pageshadow="2"
   inkscape:pageopacity="0.0"
   guidetolerance="10.0"
   gridtolerance="10.0"
   objecttolerance="10.0"
   borderopacity="1.0"
   bordercolor="#666666"
   pagecolor="#ffffff"
   id="base"
   width="751px"
   height="601px"
   inkscape:zoom="1.2816667"
   inkscape:cx="374.99999"
   inkscape:cy="299.99999"
   inkscape:window-x="-6"
   inkscape:window-y="-3"
   inkscape:current-layer="Layer_1" /><defs
   id="defs62">
	
	
	
	
</defs>
<g
   transform="matrix(0.9986685,0,0,0.9986701,0.4993342,0.3989715)"
   id="g5"
   style="fill:#ffffff;fill-opacity:1;stroke:#000000;stroke-width:0.99999899;stroke-miterlimit:4;stroke-dasharray:none;stroke-opacity:1">
		<path
   id="path7"
   style="fill:#ffffff;fill-opacity:1;stroke:#000000;stroke-width:0.99999899;stroke-miterlimit:4;stroke-dasharray:none;stroke-opacity:1"
   d="M 38.915039,0 C 92.236328,15.525391 148.625,23.849609 206.95801,23.849609 C 265.29053,23.849609 321.6792,15.525391 375,0.0004883 C 428.32031,15.525391 484.70898,23.849609 543.04199,23.849609 C 601.375,23.849609 657.76367,15.525391 711.08398,0 C 736.06445,54.121094 750,114.3877 750,177.90918 C 750,395.71777 586.16016,575.25391 375,599.99902 C 163.83887,575.25391 0,395.71777 0,177.90918 C 0,114.3877 13.935059,54.121094 38.915039,0 z " />
		
			<path
   id="path9"
   style="fill:#ffffff;fill-opacity:1;stroke:#000000;stroke-width:0.99999899;stroke-linecap:round;stroke-linejoin:round;stroke-miterlimit:4;stroke-dasharray:none;stroke-opacity:1"
   d="M 38.915039,0 C 92.236328,15.525391 148.625,23.849609 206.95801,23.849609 C 265.29053,23.849609 321.6792,15.525391 375,0.0004883 C 428.32031,15.525391 484.70898,23.849609 543.04199,23.849609 C 601.375,23.849609 657.76367,15.525391 711.08398,0 C 736.06445,54.121094 750,114.3877 750,177.90918 C 750,395.71777 586.16016,575.25391 375,599.99902 C 163.83887,575.25391 0,395.71777 0,177.90918 C 0,114.3877 13.935059,54.121094 38.915039,0 z " />
	</g><g
   transform="matrix(1.0056032,0,0,1.0101352,-2.1013652,-3.7018951)"
   id="g11"
   style="fill:#003f87;fill-opacity:1">
		<path
   id="path13"
   style="fill:#003f87;fill-opacity:1"
   d="M 15,177.90918 C 15,165.12744 15.584961,152.48242 16.729004,139.99902 L 733.27051,139.99902 C 734.41504,152.48242 735,165.12744 735,177.90918 C 735,387.42285 577.85547,560.22852 375,584.89062 C 172.14453,560.22852 15,387.42285 15,177.90918 z " />
	</g><g
   transform="matrix(1.00604,0,0,1.0270827,-2.2645005,-3.1522955)"
   id="g15"
   style="fill:#af1e2d;fill-opacity:1">
		<path
   id="path17"
   style="fill:#af1e2d;fill-opacity:1"
   d="M 47.37793,17.942871 C 98.270019,31.578125 151.76562,38.849121 206.95996,38.849121 C 265.2207,38.849121 321.58936,30.748047 375,15.611328 C 428.41113,30.748047 484.7793,38.849121 543.04004,38.849121 C 598.23438,38.849121 651.73047,31.578613 702.62109,17.942871 C 716.88281,51.567383 726.78516,87.489258 731.61719,124.99902 L 18.381836,124.99902 C 23.214844,87.489258 33.116211,51.567383 47.37793,17.942871 z " />
	</g>



<path
   style="font-size:93.28099823px;font-style:normal;font-variant:normal;font-weight:normal;font-stretch:normal;text-align:center;line-height:125%;writing-mode:lr-tb;text-anchor:middle;fill:#ffffff;fill-opacity:1;font-family:Roadgeek 2005 Series C"
   d="M 183.53777,112.74918 L 183.53777,50.332876 L 192.29397,50.332876 L 192.29397,112.74918 L 183.53777,112.74918 z M 234.32652,112.74918 L 215.04301,70.921299 L 215.04301,112.74918 L 206.09918,112.74918 L 206.09918,50.332876 L 215.04301,50.332876 L 232.18297,87.782657 L 232.18297,50.332876 L 241.1268,50.332876 L 241.1268,112.74918 L 234.32652,112.74918 z M 270.23545,58.625673 L 270.23545,112.74918 L 261.20065,112.74918 L 261.20065,58.625673 L 249.83466,58.625673 L 249.83466,50.332876 L 281.60144,50.332876 L 281.60144,58.625673 L 270.23545,58.625673 z M 290.15862,112.74918 L 290.15862,50.332876 L 319.50325,50.332876 L 319.50325,59.09191 L 299.10244,59.09191 L 299.10244,74.833157 L 312.05195,74.833157 L 312.05195,83.404561 L 299.10244,83.404561 L 299.10244,103.99298 L 321.9254,103.99298 L 321.9254,112.74918 L 290.15862,112.74918 z M 358.17549,112.74918 L 349.88269,83.404561 L 341.31412,83.404561 L 341.31412,112.74918 L 332.3703,112.74918 L 332.3703,50.332876 L 351.0028,50.332876 C 353.42494,50.332938 355.64525,50.736632 357.66375,51.543959 C 359.6822,52.351409 361.42112,53.469623 362.88052,54.898605 C 364.33984,56.327702 365.45758,58.082256 366.23374,60.16227 C 367.00981,62.24239 367.39787,64.524779 367.39791,67.009442 C 367.39787,70.735604 366.65256,73.903088 365.16196,76.511902 C 363.67129,79.120788 361.43533,80.983372 358.4541,82.099661 L 367.39791,112.74918 L 358.17549,112.74918 z M 358.64173,67.009442 C 358.6417,64.587322 357.89637,62.662194 356.40576,61.234051 C 354.9151,59.806011 352.9587,59.091964 350.53656,59.09191 L 341.31412,59.09191 L 341.31412,74.833157 L 350.53656,74.833157 C 353.14444,74.833195 355.14727,74.165584 356.54506,72.830321 C 357.9428,71.495138 358.6417,69.554847 358.64173,67.009442 L 358.64173,67.009442 z M 409.6238,95.700188 C 409.62376,98.247459 409.17363,100.62319 408.27342,102.82739 C 407.37312,105.03161 406.13124,106.94111 404.54777,108.55587 C 402.96423,110.17066 401.13196,111.45945 399.05098,112.42224 C 396.96994,113.38505 394.71835,113.86645 392.29621,113.86645 C 389.56319,113.86645 387.11023,113.33861 384.93731,112.28294 C 382.76436,111.22727 380.93257,109.79918 379.44194,107.99867 C 377.9513,106.19815 376.80229,104.11761 375.9949,101.75704 C 375.18751,99.396471 374.78382,96.943507 374.78382,94.398132 L 383.54002,94.398132 C 383.54001,95.702101 383.71058,96.990416 384.05174,98.26308 C 384.39288,99.535774 384.92071,100.68479 385.63525,101.71013 C 386.34975,102.73548 387.25049,103.5585 388.33744,104.17919 C 389.42436,104.7999 390.74394,105.11026 392.29621,105.11025 C 393.47695,105.11026 394.61079,104.86198 395.69776,104.3654 C 396.78467,103.86886 397.7162,103.18561 398.49235,102.31567 C 399.26844,101.44574 399.88914,100.4365 400.35446,99.287953 C 400.81972,98.139428 401.05236,96.943507 401.05239,95.700188 C 401.05236,93.899691 400.67995,92.301024 399.93513,90.904183 C 399.19025,89.507385 397.8863,88.094455 396.02327,86.665389 C 395.71243,86.35459 395.58828,86.18354 395.65086,86.152242 C 395.71337,86.120997 395.52716,85.950421 395.09222,85.640517 C 394.65723,85.330665 393.74087,84.725124 392.34312,83.823891 C 390.94533,82.922716 388.66293,81.386119 385.49595,79.214097 C 382.95057,77.474265 381.04108,75.439684 379.76746,73.110348 C 378.49382,70.781091 377.85701,68.219622 377.85702,65.425936 C 377.85701,63.189556 378.2607,61.093379 379.0681,59.137398 C 379.87548,57.181525 381.00886,55.458243 382.46824,53.967548 C 383.92759,52.476971 385.62007,51.312324 387.54568,50.473601 C 389.47127,49.635002 391.55134,49.215671 393.7859,49.215607 C 396.0223,49.215671 398.08768,49.619366 399.98204,50.426692 C 401.87634,51.234143 403.52192,52.352357 404.91877,53.781337 C 406.31556,55.210436 407.4333,56.918555 408.272,58.9057 C 409.11062,60.892952 409.56122,63.066363 409.6238,65.425936 L 401.05239,65.425936 C 400.92917,63.2521 400.18433,61.513183 398.81786,60.209179 C 397.45135,58.90528 395.77402,58.253304 393.7859,58.25325 C 391.73707,58.253304 389.99863,58.936552 388.57055,60.302995 C 387.14245,61.669543 386.4284,63.377188 386.42842,65.425936 C 386.4284,66.978216 386.83209,68.282167 387.63951,69.337794 C 388.44687,70.393507 389.99911,71.573317 392.29621,72.877229 C 398.32127,76.355103 402.71547,79.895009 405.47882,83.496955 C 408.24211,87.09896 409.62376,91.166701 409.6238,95.700188 L 409.6238,95.700188 z M 435.62513,58.625673 L 435.62513,112.74918 L 426.59034,112.74918 L 426.59034,58.625673 L 415.22435,58.625673 L 415.22435,50.332876 L 446.99113,50.332876 L 446.99113,58.625673 L 435.62513,58.625673 z M 481.6321,112.74918 L 477.25401,95.700188 L 463.83827,95.700188 L 459.74164,112.74918 L 450.70398,112.74918 L 466.26044,50.332876 L 475.01948,50.332876 L 490.57593,112.74918 L 481.6321,112.74918 z M 470.45374,68.965371 L 466.07565,86.943996 L 475.01948,86.943996 L 470.45374,68.965371 z M 514.77201,58.625673 L 514.77201,112.74918 L 505.73722,112.74918 L 505.73722,58.625673 L 494.37123,58.625673 L 494.37123,50.332876 L 526.13801,50.332876 L 526.13801,58.625673 L 514.77201,58.625673 z M 534.6952,112.74918 L 534.6952,50.332876 L 564.03982,50.332876 L 564.03982,59.09191 L 543.63903,59.09191 L 543.63903,74.833157 L 556.58852,74.833157 L 556.58852,83.404561 L 543.63903,83.404561 L 543.63903,103.99298 L 566.46199,103.99298 L 566.46199,112.74918 L 534.6952,112.74918 z "
   id="text7023" />

<path
   style="font-size:373.12701416px;font-style:normal;font-variant:normal;font-weight:normal;font-stretch:normal;text-align:center;line-height:125%;writing-mode:lr-tb;text-anchor:middle;fill:#ffffff;fill-opacity:1;font-family:Roadgeek 2005 Series C"
   d="M 301.49286,372.99109 C 301.49271,383.17267 299.75283,392.67378 296.27323,401.49444 C 292.79332,410.31516 288.01149,417.95509 281.92774,424.41424 C 275.84371,430.87342 268.51651,435.90352 259.94611,439.50458 C 251.37547,443.10564 242.12076,444.90617 232.18192,444.90617 C 222.00033,444.90617 212.74751,443.16819 204.42344,439.69221 C 196.09925,436.21624 188.89524,431.37188 182.81138,425.15909 C 176.72746,418.94633 171.88309,411.55469 168.27826,402.98413 C 164.67339,394.41365 162.62458,385.03764 162.13182,374.85606 L 197.15687,374.85606 C 198.14996,385.03764 201.81356,393.42052 208.14769,400.00473 C 214.4817,406.58903 222.4931,409.88114 232.18192,409.88111 C 242.37094,409.88114 250.75572,406.34074 257.33629,399.25988 C 263.91663,392.17911 267.20686,383.42285 267.20698,372.99109 C 267.20686,366.28181 266.33881,360.0084 264.60284,354.17081 C 262.86664,348.33339 260.507,343.24074 257.52392,338.89283 C 254.54061,334.54513 251.1234,331.12981 247.27227,328.64687 C 243.42093,326.16415 239.25887,324.92273 234.78607,324.92261 L 217.27353,324.92261 L 217.27353,290.63672 L 232.18192,290.63672 C 236.65473,290.63687 240.07194,289.89203 242.43357,288.40218 C 244.79501,286.91263 247.46549,284.42789 250.44499,280.94798 C 257.64701,273.00306 261.24806,263.68959 261.24817,253.00754 C 261.24806,243.31898 258.57759,235.61651 253.23676,229.90009 C 247.89572,224.18411 240.87745,221.326 232.18192,221.32578 C 224.23677,221.326 217.96525,223.62499 213.36733,228.22276 C 208.76928,232.82096 205.97373,239.34266 204.98065,247.78789 L 169.9556,243.31878 C 170.94871,235.11616 173.18326,227.47623 176.65925,220.39898 C 180.1352,213.32217 184.60619,207.29894 190.07226,202.32924 C 195.53824,197.36002 201.87421,193.44623 209.08017,190.58789 C 216.28602,187.73003 223.9866,186.30098 232.18192,186.30072 C 241.12763,186.30098 249.44986,187.91577 257.14865,191.14511 C 264.84722,194.37493 271.49212,198.90848 277.08336,204.74574 C 282.67435,210.58348 287.08469,217.41601 290.31441,225.24336 C 293.54386,233.07114 295.15865,241.45401 295.1588,250.39203 C 295.15865,260.8315 293.48131,270.52213 290.12678,279.46396 C 286.77197,288.40612 280.87193,297.72148 272.42663,307.41009 C 282.11524,316.10583 289.38178,326.04285 294.22631,337.22118 C 299.07053,348.39972 301.49271,360.32302 301.49286,372.99109 L 301.49286,372.99109 z M 354.45121,440.43707 L 354.45121,235.49501 L 338.80365,235.49501 L 338.80365,208.29373 C 346.00573,207.79361 351.7807,206.05373 356.12854,203.07409 C 360.47631,200.09492 364.01482,195.99351 366.74409,190.76984 L 390.60206,190.76984 L 390.60206,440.43707 L 354.45121,440.43707 z M 587.86816,315.23387 C 587.86799,334.3613 586.81232,350.63239 584.70112,364.04719 C 582.5896,377.46216 578.9222,390.13219 573.69894,402.05733 C 567.4898,416.96197 559.72857,427.82957 550.41524,434.66021 C 541.10163,441.49085 529.36408,444.90617 515.20254,444.90617 C 500.29786,444.90617 488.18694,441.49085 478.86973,434.66021 C 469.55242,427.82957 461.7893,416.96197 455.58035,402.05733 C 450.36448,389.88201 446.70087,377.14943 444.58953,363.85956 C 442.47816,350.56984 441.42248,334.3613 441.4225,315.23387 C 441.42248,296.35687 442.47816,280.14833 444.58953,266.60817 C 446.70087,253.06838 450.36448,240.33579 455.58035,228.4104 C 462.03948,213.50602 469.92769,202.7616 479.245,196.1771 C 488.56221,189.59311 500.54804,186.30098 515.20254,186.30072 C 529.60668,186.30098 541.40488,189.59311 550.59718,196.1771 C 559.78922,202.7616 567.4898,213.75619 573.69894,229.16093 C 576.1854,235.37012 578.3612,241.57911 580.22633,247.78789 C 582.09113,253.99707 583.58273,260.51688 584.70112,267.34733 C 585.81918,274.17815 586.62657,281.50725 587.12331,289.33466 C 587.61971,297.16238 587.86799,305.79544 587.86816,315.23387 L 587.86816,315.23387 z M 553.58227,315.23387 C 553.58214,308.27448 553.3964,301.9385 553.02506,296.22596 C 552.65344,290.51368 552.15688,285.23528 551.53535,280.39077 C 550.91357,275.54655 550.10617,270.88981 549.11316,266.42054 C 548.1199,261.95161 547.00167,257.48062 545.75849,253.00754 C 542.52879,241.8255 538.49182,233.74965 533.64756,228.77998 C 528.80307,223.81074 522.65475,221.326 515.20254,221.32578 C 499.7975,221.326 489.24073,231.63639 483.53217,252.257 C 480.54512,261.69575 478.49441,271.19685 477.38004,280.76034 C 476.26555,290.32415 475.70833,302.0617 475.70839,315.97304 C 475.70833,322.6825 475.89408,328.83272 476.26561,334.42373 C 476.63702,340.01494 477.13359,345.23269 477.7553,350.07698 C 478.3769,354.92143 479.1843,359.70326 480.17749,364.42246 C 481.17057,369.14182 482.28879,373.98428 483.53217,378.9499 C 489.24073,399.57075 499.7975,409.88114 515.20254,409.88111 C 522.65475,409.88114 528.80307,407.39642 533.64756,402.42692 C 538.49182,397.4575 542.52879,389.63183 545.75849,378.9499 C 547.24428,373.98428 548.48569,369.20436 549.48275,364.61009 C 550.47954,360.01598 551.28694,355.23415 551.90494,350.26461 C 552.52268,345.29524 552.9567,340.01494 553.207,334.42373 C 553.45705,328.83272 553.58214,322.4361 553.58227,315.23387 L 553.58227,315.23387 z "
   id="text7029" />

</svg>